<svg width="239" height="192" viewBox="0 0 239 192" fill="none" xmlns="http://www.w3.org/2000/svg">
<g id="task=6, variant=false success">
<g id="success">
<g id="Group">
<path id="Vector" d="M141.727 171.328C141.727 171.328 141.823 171.428 142.119 171.434C142.425 170.946 142.427 170.847 141.727 171.328Z" fill="#A33E2B"/>
<path id="Vector_2" d="M200.538 41.0291C174.566 22.9829 91.9992 58.1802 147.339 116.874C153.798 124.734 154.237 129.938 150.611 144.405C150.611 144.405 142.521 171.046 142.117 171.532C261.138 171.532 174.052 103.556 178.158 84.0543C182.264 64.5525 196.16 73.4553 195.35 90.7259C220.916 84.7977 226.511 59.0752 200.538 41.0291Z" fill="#C1332F"/>
<path id="Vector_3" d="M56.9112 136.124C50.1394 159.486 73.5021 174.892 73.5021 174.892C73.5021 174.892 148.363 196.494 149.083 141.612C132.052 133.596 109.656 126.555 90.7701 122.749C65.3881 117.837 55.6793 122.673 56.9112 136.124Z" fill="#E2342B"/>
<path id="Vector_4" d="M81.016 183.711C86.1144 182.008 110.905 177.613 108.659 176.315C102.508 172.676 117.617 177.771 84.1744 170.939C50.7314 164.107 44.8991 183.711 53.7913 183.711H81.016Z" fill="#E2342B"/>
<path id="Vector_5" d="M66.1898 128.625C57.5903 150.483 68.5953 169.678 104.081 178.135L115.479 122.132L75.6375 124.949L66.1898 128.625Z" fill="#FFC6B7"/>
<path id="Vector_6" d="M160.142 128.914C151.321 114.73 143.99 110.744 134.395 106.42C113.344 96.8488 102.966 97.4465 92.8917 60.3341L72.2089 78.9077C64.3771 85.9702 63.4651 97.8999 70.2259 106.021L91.49 132.15C98.0077 132.073 106.105 130.579 112.544 124.083C106.64 133.65 97.8927 136.845 91.2744 137.018C87.4216 142.476 85.6267 148.762 86.0233 154.002C87.4162 169.43 105.745 171.68 102.245 179.414C100.395 183.329 139.887 183.37 139.887 183.37C160.809 173.194 172.766 150.967 160.142 128.914Z" fill="#F94E3D"/>
<path id="Vector_7" d="M103.658 104.735C102.863 89.0217 88.1309 90.1312 84.6655 90.6595L77.285 84.0065C77.285 84.0065 75.4778 93.2015 68.7481 92.3572C62.0183 91.5118 49.6665 101.395 50.2756 110.52C50.8847 119.644 51.2397 125.584 57.0483 131.813C62.8569 138.042 67.7845 138.528 67.7845 138.528C67.1613 134.864 91.2108 131.755 101.075 126.902C101.093 125.954 102.877 109.558 103.658 104.735Z" fill="#F94E3D"/>
<path id="Vector_8" d="M106.152 106.844C105.404 92.0673 91.3443 94.1114 82.5401 86.1752L67.6951 92.1273C67.6951 92.1273 58.2969 101.183 59.7819 107.046C44.0871 122.849 56.4948 127.753 62.3034 133.982C68.1121 140.211 73.0397 140.697 73.0397 140.697C72.4164 137.032 84.3511 138.315 94.2155 133.462C99.0522 129.736 105.372 111.667 106.152 106.844Z" fill="#FFC6B7"/>
<path id="Vector_9" d="M114.156 89.9201C108.973 89.8241 104.864 93.9249 104.771 98.9642C104.678 104.004 108.776 108.256 113.815 108.35C118.999 108.446 123.107 104.345 123.201 99.3055C123.294 94.2661 119.196 90.0134 114.156 89.9201Z" fill="#F94E3D"/>
<g id="Group_2">
<path id="Vector_10" d="M64.2599 109.778C53.4731 105.439 42.0451 108.361 38.8325 116.344C35.2748 127.868 46.5317 134.563 50.2192 144.627C59.8957 139.901 72.1859 142.096 77.5995 131.39C80.9006 123.382 75.0716 114.206 64.2599 109.778Z" fill="#64151C"/>
<path id="Vector_11" d="M65.6249 107.969C59.1328 105.769 50.4452 103.515 41.2388 110.597C39.1182 112.246 36.9975 113.893 36.3125 114.181C46.6753 120.075 63.0191 112.963 63.0191 112.963C65.1629 122.983 74.159 131.399 80.5213 131.909C79.6144 129.189 81.2566 123.775 77.7504 117.952C74.953 113.304 70.8283 110.144 65.6249 107.969Z" fill="#005B39"/>
</g>
<path id="Vector_12" d="M139.376 183.711C141.78 181.997 142.281 178.239 139.235 176.554C76.957 155.766 69.1281 183.711 80.1794 183.711H139.376Z" fill="#F94E3D"/>
<path id="Vector_13" d="M41.6927 105.935C38.6084 105.025 35.1295 107.669 33.8501 111.817C32.5718 115.964 34.0025 120.169 37.0869 121.08C40.1702 121.991 43.6501 119.347 44.9285 115.199C46.2078 111.051 44.7202 106.928 41.6927 105.935Z" fill="#F94E3D"/>
<path id="Vector_14" d="M99.1373 90.415C103.603 122.138 82.6569 110.291 66.0177 108.901C58.3847 108.263 44.7036 111.562 47.2486 117.454C48.3973 119.775 53.2882 116.692 53.2882 116.692C53.2882 116.692 50.401 123.261 53.1633 124.716C55.9256 126.171 58.3251 121.771 58.3251 121.771C58.3251 121.771 61.8909 127.068 68.0142 123.837C94.7466 162.291 157.265 115.767 99.1373 90.415Z" fill="#F94E3D"/>
<g id="Group_3">
<g id="Group_4">
<g id="Group_5">
<path id="Vector_15" d="M58.8596 16.4827C55.7806 14.2097 53.412 11.4958 51.8382 8.2887C49.1929 13.0163 52.1529 17.3097 52.1529 17.3097C50.1359 17.6824 48.0208 17.3951 45.8457 16.7008C48.1001 26.758 58.3722 23.9088 58.3722 23.9088L58.8596 16.4827Z" fill="#C1332F"/>
<path id="Vector_16" d="M76.8692 32.3117C80.503 41.8549 77.7984 48.8407 72.0187 51.0415C66.2391 53.2422 59.573 49.8245 55.9393 40.2814C52.3055 30.7382 58.8596 16.4828 58.8596 16.4828C58.8596 16.4828 73.2354 22.7686 76.8692 32.3117Z" fill="#F94E3D"/>
<path id="Vector_17" d="M73.6692 35.6518C75.9467 41.6331 74.2516 46.0115 70.6291 47.3909C67.0067 48.7702 62.8286 46.6281 60.5511 40.6468C58.2736 34.6656 62.3815 25.7308 62.3815 25.7308C62.3815 25.7308 71.3917 29.6705 73.6692 35.6518Z" fill="#FFC6B7"/>
</g>
<g id="Group_6">
<path id="Vector_18" d="M122.911 23.2826C126.398 21.7066 129.284 19.5506 131.496 16.7454C133.09 21.923 129.294 25.4993 129.294 25.4993C131.188 26.2871 133.316 26.4503 135.589 26.2282C131.273 35.5878 121.828 30.6455 121.828 30.6455L122.911 23.2826Z" fill="#C1332F"/>
<path id="Vector_19" d="M101.979 34.9775C96.4226 43.545 97.6002 50.943 102.789 54.3082C107.978 57.6733 115.213 55.7313 120.769 47.1639C126.326 38.5964 122.911 23.2826 122.911 23.2826C122.911 23.2826 107.535 26.41 101.979 34.9775Z" fill="#F94E3D"/>
<path id="Vector_20" d="M104.406 38.9151C100.924 44.2849 101.662 48.9217 104.914 51.0308C108.166 53.14 112.701 51.9228 116.183 46.553C119.666 41.1833 117.525 31.5852 117.525 31.5852C117.525 31.5852 107.889 33.5454 104.406 38.9151Z" fill="#FFC6B7"/>
</g>
</g>
<path id="Vector_21" d="M118.916 75.5805C116.633 71.5029 114.953 67.0894 114.484 62.4396C113.067 48.3853 104.706 34.6326 89.4916 33.0174C74.2775 31.4023 63.2149 43.0926 58.8789 56.5361C56.4889 60.5523 54.1766 64.4379 51.7866 68.4541C48.9509 71.6746 47.1223 75.6896 46.7828 78.8873C45.6021 90.0086 61.3974 100.803 82.0625 102.997C102.727 105.19 120.437 97.9532 121.618 86.8319C121.957 83.6341 121.012 79.3246 118.916 75.5805Z" fill="#F94E3D"/>
<path id="Vector_22" d="M100.758 84.6906C99.82 93.5245 92.0294 96.2559 82.88 95.2846C73.7306 94.3133 66.6871 90.007 67.6249 81.1731C68.5627 72.3392 79.2426 62.5474 86.2762 63.2941C93.3097 64.0408 101.696 75.8566 100.758 84.6906Z" fill="#FFC6B7"/>
<g id="Group_7">
<g id="Group_8">
<path id="Vector_23" d="M72.1187 72.71C77.7502 72.71 82.3155 68.1448 82.3155 62.5132C82.3155 56.8817 77.7502 52.3164 72.1187 52.3164C66.4871 52.3164 61.9219 56.8817 61.9219 62.5132C61.9219 68.1448 66.4871 72.71 72.1187 72.71Z" fill="white"/>
<path id="Vector_24" d="M72.1181 68.6313C75.497 68.6313 78.2362 65.8922 78.2362 62.5132C78.2362 59.1343 75.497 56.3951 72.1181 56.3951C68.7392 56.3951 66 59.1343 66 62.5132C66 65.8922 68.7392 68.6313 72.1181 68.6313Z" fill="#0F111F"/>
<path id="Vector_25" d="M68.5567 61.1111C70.1478 61.1111 71.4377 59.8213 71.4377 58.2302C71.4377 56.6391 70.1478 55.3492 68.5567 55.3492C66.9656 55.3492 65.6758 56.6391 65.6758 58.2302C65.6758 59.8213 66.9656 61.1111 68.5567 61.1111Z" fill="white"/>
</g>
<g id="Group_9">
<path id="Vector_26" d="M100.281 75.6999C105.912 75.6999 110.478 71.1346 110.478 65.5031C110.478 59.8715 105.912 55.3063 100.281 55.3063C94.6493 55.3063 90.084 59.8715 90.084 65.5031C90.084 71.1346 94.6493 75.6999 100.281 75.6999Z" fill="white"/>
<path id="Vector_27" d="M100.28 71.6212C103.659 71.6212 106.398 68.882 106.398 65.5031C106.398 62.1242 103.659 59.385 100.28 59.385C96.9013 59.385 94.1621 62.1242 94.1621 65.5031C94.1621 68.882 96.9013 71.6212 100.28 71.6212Z" fill="#0F111F"/>
<path id="Vector_28" d="M96.7188 64.101C98.3099 64.101 99.5998 62.8112 99.5998 61.2201C99.5998 59.629 98.3099 58.3391 96.7188 58.3391C95.1277 58.3391 93.8379 59.629 93.8379 61.2201C93.8379 62.8112 95.1277 64.101 96.7188 64.101Z" fill="white"/>
</g>
</g>
<path id="Vector_29" d="M92.7033 76.2282C92.3287 79.7563 88.5721 82.2497 84.3126 81.7976C80.0531 81.3454 76.9037 78.1187 77.2783 74.5907C77.6528 71.0626 93.0778 72.7001 92.7033 76.2282Z" fill="#0F111F"/>
<g id="Group_10">
<path id="Vector_30" d="M75.3594 87.4469C75.3594 87.4469 81.1762 88.8103 84.0157 84.812L84.6017 79.2917" stroke="#0F111F" stroke-width="3.6159" stroke-linecap="round" stroke-linejoin="round"/>
<path id="Vector_31" d="M91.8789 89.2006C91.8789 89.2006 85.9055 89.3124 83.9688 84.807" stroke="#0F111F" stroke-width="3.6159" stroke-linecap="round" stroke-linejoin="round"/>
</g>
<g id="Group_11">
<path id="Vector_32" d="M81.5945 50.6001C84.1277 50.6001 86.1812 48.5465 86.1812 46.0133C86.1812 43.4802 84.1277 41.4266 81.5945 41.4266C79.0614 41.4266 77.0078 43.4802 77.0078 46.0133C77.0078 48.5465 79.0614 50.6001 81.5945 50.6001Z" fill="#E2342B"/>
<path id="Vector_33" d="M94.4851 51.9685C97.0183 51.9685 99.0719 49.9149 99.0719 47.3818C99.0719 44.8486 97.0183 42.795 94.4851 42.795C91.952 42.795 89.8984 44.8486 89.8984 47.3818C89.8984 49.9149 91.952 51.9685 94.4851 51.9685Z" fill="#E2342B"/>
</g>
</g>
</g>
<path id="Union" d="M51.8375 8.2887C53.3129 11.2954 55.4875 13.8685 58.2906 16.0514L58.859 16.483L59.484 16.7711C62.2851 18.1046 73.6891 23.9618 76.8687 32.3121C77.1635 33.0861 77.4125 33.8444 77.6256 34.5836C81.209 33.1701 85.1835 32.5599 89.4908 33.0172C93.7977 33.4745 97.5548 34.9056 100.761 37.0397C101.125 36.3615 101.528 35.6723 101.979 34.9772C107.522 26.4301 122.838 23.2976 122.911 23.2828L123.558 22.9801C126.757 21.4345 129.422 19.3753 131.496 16.7457C133.089 21.9232 129.295 25.4996 129.295 25.4996C131.188 26.2874 133.316 26.4502 135.588 26.2281C132.539 32.842 126.929 32.313 123.899 31.4342C124.119 36.4348 123.657 42.7105 120.769 47.1637C118.377 50.8529 115.672 53.3126 112.955 54.65C113.707 57.1842 114.218 59.8069 114.483 62.4401C114.952 67.0897 116.631 71.5032 118.915 75.5807C121.011 79.3247 121.956 83.6339 121.617 86.8317C121.423 88.6611 120.778 90.3836 119.75 91.9781C121.89 93.7133 123.254 96.3754 123.2 99.3053C123.186 100.056 123.081 100.786 122.898 101.485C126.355 102.978 130.158 104.494 134.395 106.421C136.781 107.496 139.028 108.55 141.192 109.746C98.7025 55.3721 175.634 23.7262 200.538 41.0289C226.51 59.0751 220.916 84.7979 195.35 90.7262C196.16 73.4557 182.264 64.5528 178.158 84.0543C174.224 102.742 254.028 165.94 155.962 171.182C151.709 176.119 146.209 180.295 139.888 183.37C139.888 183.37 139.858 183.369 139.799 183.369C139.665 183.49 139.524 183.604 139.375 183.711H53.7896C46.6776 183.71 48.9857 171.171 67.3072 169.646C61.8598 164.189 54.9144 154.745 55.7476 142.605C53.8566 143.128 51.9942 143.761 50.2203 144.628C47.0884 136.08 38.4989 129.963 38.1598 121.254C37.7995 121.24 37.4403 121.184 37.0865 121.08C34.0022 120.169 32.5719 115.964 33.8502 111.817C35.1296 107.67 38.6078 105.026 41.692 105.936C42.9072 106.334 43.8736 107.238 44.5133 108.444C46.6913 107.245 48.8274 106.52 50.899 106.14C52.2108 102.243 55.3659 98.5436 58.8932 95.9528C50.8826 91.3681 46.1137 85.1808 46.7818 78.8873C47.1213 75.6897 48.9501 71.6742 51.7857 68.4537C54.1757 64.4377 56.4876 60.5518 58.8775 56.5358C59.6899 54.0171 60.7378 51.5595 62.0055 49.2399C59.63 47.3615 57.5033 44.389 55.9391 40.2809C54.0504 35.3205 54.9151 29.0876 56.1803 24.2448C53.0335 24.4676 47.4382 23.8067 45.8453 16.7008C48.0204 17.3951 50.1359 17.6829 52.1529 17.3102C52.1529 17.3102 49.1924 13.0163 51.8375 8.2887Z" fill="white" fill-opacity="0.6"/>
</g>
</g>
</svg>
