<svg width="159" height="152" viewBox="0 0 159 152" fill="none" xmlns="http://www.w3.org/2000/svg">
<g id="task=2, variant=true success">
<g id="Group 2136141247">
<circle id="Ellipse 3706" cx="88.9998" cy="70" r="62.5" transform="rotate(-33.7428 88.9998 70)" fill="#1F5EFF"/>
<g id="Mask group">
<mask id="mask0_2438_65930" style="mask-type:alpha" maskUnits="userSpaceOnUse" x="26" y="7" width="126" height="126">
<circle id="Ellipse 3707" cx="88.9998" cy="70" r="62.5" transform="rotate(-33.7428 88.9998 70)" fill="#1F5EFF"/>
</mask>
<g mask="url(#mask0_2438_65930)">
<g id="Group 2136141246">
<circle id="Ellipse 3707_2" cx="154.948" cy="25.9469" r="58.6517" transform="rotate(-33.7428 154.948 25.9469)" stroke="#0648EF" stroke-width="15.8898"/>
<circle id="Ellipse 3708" cx="23.052" cy="114.053" r="58.6517" transform="rotate(-33.7428 23.052 114.053)" stroke="#0648EF" stroke-width="15.8898"/>
</g>
</g>
</g>
</g>
<circle id="Ellipse 3709" cx="114.041" cy="39.6261" r="15.4848" transform="rotate(-33.7428 114.041 39.6261)" fill="white"/>
<path id="Vector" d="M44.6951 120.575C43.1367 118.589 40.46 117.843 38.0988 118.735C35.0802 119.875 33.0266 122.67 33.0811 125.546C33.1582 129.606 37.4255 133.27 41.3149 132.408C44.4761 131.707 46.4231 128.231 46.3467 125.089C46.3069 123.442 45.7111 121.869 44.6951 120.575Z" fill="white"/>
<path id="Vector_2" d="M54.6194 24.7874C54.6194 24.7874 59.4308 7.00439 50.0037 7.00439C40.5766 7.00439 43.63 24.7874 43.63 24.7874C43.63 24.7874 25.0322 22.4356 25.0322 31.3753C25.0322 40.3149 43.63 36.965 43.63 36.965C43.63 36.965 37.9284 55.2109 48.5019 55.2109C59.0754 55.2109 54.6194 36.965 54.6194 36.965C54.6194 36.965 73.173 41.2913 73.173 32.2763C73.173 23.2613 54.6194 24.7874 54.6194 24.7874Z" fill="white"/>
<path id="Vector_3" d="M21.3471 64.3413C21.3471 64.3413 23.6467 52.7474 17.2488 52.7474C10.8509 52.7474 12.4684 64.3413 12.4684 64.3413C12.4684 64.3413 0 62.7023 0 69.5237C0 76.3452 12.0011 74.1547 12.0011 74.1547C12.0011 74.1547 9.48156 86.0181 16.0989 86.0181C22.7163 86.0181 20.4126 73.6874 20.4126 73.6874C20.4126 73.6874 33.0799 76.6741 33.0799 70.2326C33.0799 63.791 21.3471 64.3413 21.3471 64.3413Z" fill="white"/>
<path id="Vector_4" d="M141.42 129.956C141.42 129.956 143.72 118.363 137.322 118.363C130.924 118.363 132.542 129.956 132.542 129.956C132.542 129.956 120.073 128.317 120.073 135.139C120.073 141.96 132.074 139.77 132.074 139.77C132.074 139.77 129.555 151.633 136.172 151.633C142.79 151.633 140.486 139.302 140.486 139.302C140.486 139.302 153.153 142.289 153.153 135.848C153.153 129.406 141.42 129.956 141.42 129.956Z" fill="white"/>
</g>
</svg>
